<svg width="17" height="17" viewBox="0 0 17 17" fill="none" xmlns="http://www.w3.org/2000/svg">
<path d="M2.92694 2.92679C1.77737 4.07512 0.954112 5.33777 0.901957 6.98579C0.875839 7.81108 1.11325 8.77079 1.48837 9.67293C1.8638 10.5758 2.38089 11.43 2.9226 12.0444C4.00692 13.2741 5.35078 13.9207 6.97967 14.0735C7.81101 14.1515 8.5125 13.8899 9.16194 13.4889C9.61765 13.2076 10.055 12.8524 10.4943 12.4955C10.6531 12.3666 10.8121 12.2375 10.9723 12.1115L14.8411 15.9804C14.8429 16.01 14.8571 16.0303 14.8651 16.0398C14.8738 16.0502 14.8828 16.0566 14.8877 16.0598C14.8931 16.0635 14.8981 16.066 14.9017 16.0678C14.9087 16.0712 14.9154 16.0736 14.9201 16.0751C14.9225 16.0759 14.9248 16.0766 14.9272 16.0773C14.9294 16.0785 14.9315 16.0797 14.9337 16.0808C14.9382 16.083 14.9446 16.086 14.952 16.0886C14.9558 16.0899 14.9611 16.0916 14.9675 16.0929C14.9732 16.0941 14.9841 16.0959 14.9976 16.0948C15.0096 16.0938 15.0326 16.0897 15.0542 16.0718C15.0748 16.0724 15.0982 16.0732 15.1239 16.0741C15.218 16.0774 15.3429 16.0817 15.4715 16.0846C15.5841 16.0871 15.6978 16.0883 15.7899 16.0864C15.8312 16.0856 15.8692 16.0841 15.9014 16.0816C15.9057 16.0841 15.91 16.0861 15.9141 16.0877C15.9179 16.0898 15.922 16.0917 15.9262 16.0933C15.9557 16.1046 15.9814 16.0991 15.9937 16.0951C16.0066 16.091 16.016 16.0852 16.0208 16.0819C16.0262 16.0782 16.0305 16.0746 16.0335 16.072C16.0393 16.0668 16.0441 16.0616 16.0474 16.0577C16.049 16.0559 16.0505 16.054 16.0521 16.052C16.054 16.0505 16.0559 16.0489 16.0578 16.0473C16.0616 16.044 16.0668 16.0393 16.072 16.0334C16.0747 16.0305 16.0783 16.0262 16.0819 16.0208C16.0852 16.0159 16.091 16.0066 16.0951 15.9937C16.0991 15.9813 16.1046 15.9557 16.0933 15.9262C16.0917 15.922 16.0898 15.9179 16.0877 15.9141C16.0861 15.91 16.0841 15.9057 16.0816 15.9014C16.0841 15.8692 16.0856 15.8311 16.0864 15.7899C16.0884 15.6978 16.0871 15.5841 16.0846 15.4715C16.0817 15.3429 16.0774 15.2181 16.0741 15.1239C16.0733 15.0982 16.0724 15.0748 16.0718 15.0542C16.0897 15.0326 16.0938 15.0096 16.0948 14.9976C16.0959 14.9841 16.0941 14.9732 16.0929 14.9675C16.0923 14.9645 16.0916 14.9617 16.0909 14.9591C16.0901 14.9564 16.0893 14.954 16.0886 14.952C16.0861 14.9446 16.0831 14.9383 16.0808 14.9338C16.0797 14.9316 16.0785 14.9294 16.0773 14.9272C16.0766 14.9248 16.0759 14.9225 16.0751 14.9201C16.0736 14.9154 16.0712 14.9087 16.0678 14.9017C16.067 14.9 16.066 14.898 16.0648 14.8958C16.0634 14.8933 16.0618 14.8906 16.0599 14.8877C16.0566 14.8828 16.0502 14.8738 16.0399 14.8651C16.0304 14.8571 16.0101 14.8429 15.9804 14.8411L12.1115 10.9722C12.2397 10.8085 12.3713 10.6462 12.5028 10.484C12.8565 10.0479 13.2087 9.61354 13.4882 9.16138C13.8896 8.512 14.1519 7.81066 14.0735 6.97956C13.9199 5.35141 13.2727 4.00652 12.0444 2.92256C11.4308 2.38097 10.5761 1.86417 9.6728 1.48885C8.77027 1.11384 7.81023 0.876354 6.98592 0.901872C5.33964 0.952835 4.07535 1.77939 2.92694 2.92679ZM2.92694 2.92679L2.99761 2.99753M2.92694 2.92679L2.99761 2.99753M2.99761 2.99753C1.8568 4.13712 1.05292 5.37696 1.00191 6.98896C0.950893 8.60096 1.93114 10.7687 2.99761 11.9782C4.06407 13.1877 5.38389 13.8234 6.98901 13.9739C8.35743 14.1023 9.36866 13.2809 10.4257 12.4224C10.6085 12.2739 10.7927 12.1242 10.9804 11.9782L2.99761 2.99753ZM10.9103 4.06666C11.1191 4.27216 11.3014 4.61091 11.4641 4.98163C11.5448 5.1654 11.6193 5.35388 11.6893 5.53354C11.7011 5.56373 11.7127 5.59372 11.7242 5.62341C11.781 5.76953 11.8349 5.90843 11.8861 6.02992C11.9461 6.17241 11.9726 6.25881 11.9818 6.31816C11.9903 6.37232 11.9847 6.4046 11.9731 6.44184C11.97 6.45184 11.9653 6.46497 11.9598 6.48054C11.9464 6.51811 11.9279 6.56987 11.9143 6.62606C11.8932 6.71288 11.8776 6.82573 11.8783 6.98936C11.8791 7.19695 11.9054 7.42687 11.9315 7.65471C11.9454 7.77595 11.9593 7.8966 11.9691 8.01299C11.9985 8.35861 11.9955 8.68007 11.8858 8.9466C11.8402 9.05742 11.7929 9.17933 11.7431 9.30783C11.6591 9.52467 11.5677 9.76031 11.4646 9.99323C11.3009 10.3631 11.1173 10.702 10.9097 10.9097C10.7021 11.1174 10.3632 11.301 9.99326 11.4646C9.76093 11.5674 9.52603 11.6585 9.30975 11.7423C9.18055 11.7924 9.058 11.8399 8.94662 11.8858C8.68023 11.9955 8.35872 11.9985 8.01304 11.9691C7.8966 11.9593 7.77589 11.9454 7.65461 11.9315C7.42678 11.9054 7.1969 11.8791 6.98942 11.8782C6.82584 11.8776 6.71301 11.8931 6.62618 11.9142C6.57002 11.9279 6.51825 11.9464 6.48066 11.9598C6.46507 11.9653 6.45192 11.97 6.44191 11.9732C6.40464 11.9848 6.37232 11.9903 6.31816 11.9819C6.25882 11.9726 6.17244 11.9461 6.03 11.8861C5.90811 11.8347 5.76864 11.7805 5.62192 11.7236C5.59276 11.7122 5.56332 11.7008 5.53367 11.6892C5.354 11.6193 5.1655 11.5447 4.98171 11.4641C4.61092 11.3014 4.27215 11.1191 4.06676 10.9103C3.64802 10.4845 3.40218 9.82355 3.26323 9.10079C3.12477 8.3806 3.09507 7.61356 3.09761 6.98936C3.10015 6.36354 3.12829 5.84869 3.26225 5.38207C3.39531 4.9186 3.63424 4.4982 4.06618 4.06609C4.4981 3.63399 4.9186 3.39507 5.38217 3.26205C5.8489 3.12813 6.36384 3.10008 6.98942 3.09753C7.61337 3.09499 8.3805 3.12461 9.10079 3.26302C9.82366 3.40194 10.4847 3.64778 10.9103 4.06666Z" fill="white" stroke="white" stroke-width="0.2"/>
</svg>
